<?xml version="1.0" encoding="UTF-8" standalone="no"?>
<svg
   width="128"
   height="128"
   style="fill:none"
   version="1.1"
   id="svg44"
   sodipodi:docname="x11-calc.svg"
   inkscape:version="1.3.2 (091e20ef0f, 2023-11-25)"
   xmlns:inkscape="http://www.inkscape.org/namespaces/inkscape"
   xmlns:sodipodi="http://sodipodi.sourceforge.net/DTD/sodipodi-0.dtd"
   xmlns="http://www.w3.org/2000/svg"
   xmlns:svg="http://www.w3.org/2000/svg">
  <defs
     id="defs44" />
  <sodipodi:namedview
     id="namedview44"
     pagecolor="#ffffff"
     bordercolor="#000000"
     borderopacity="0.25"
     inkscape:showpageshadow="2"
     inkscape:pageopacity="0.0"
     inkscape:pagecheckerboard="0"
     inkscape:deskcolor="#d1d1d1"
     inkscape:zoom="4"
     inkscape:cx="58.625"
     inkscape:cy="74.625"
     inkscape:window-width="1440"
     inkscape:window-height="828"
     inkscape:window-x="0"
     inkscape:window-y="25"
     inkscape:window-maximized="1"
     inkscape:current-layer="g51" />
  <g
     id="g51"
     transform="matrix(0.86,0,0,0.86,9.1,8.96)">
    <rect
       width="96"
       height="128"
       x="16"
       y="0"
       style="fill:#2b2200;stroke-width:1;stroke-dasharray:none"
       id="rect2"
       rx="8%" />
    <rect
       width="48"
       height="128"
       x="16"
       y="0"
       style="fill:#2b2200;stroke-width:1.01193"
       id="rect2-3" />
    <rect
       width="88"
       height="120"
       x="20"
       y="4"
       style="fill:#696969"
       id="rect3"
       rx="5%" />
    <rect
       width="72"
       height="24"
       x="28"
       y="12"
       style="fill:#000000"
       id="rect4"
       rx="5%" />
    <rect
       width="64"
       height="16"
       x="32"
       y="16"
       style="fill:#a9a9a9"
       id="rect5" />
    <rect
       width="12"
       height="12"
       x="28"
       y="40"
       style="fill:#000000"
       id="rect6"
       rx="2%" />
    <rect
       width="9"
       height="8"
       x="29"
       y="41"
       style="fill:#d3d3d3"
       id="rect7"
       rx="2%" />
    <rect
       width="12"
       height="12"
       x="48"
       y="40"
       style="fill:#000000"
       id="rect8"
       rx="2%" />
    <rect
       width="9"
       height="8"
       x="49"
       y="41"
       style="fill:#d3d3d3"
       id="rect9"
       rx="2%" />
    <rect
       width="12"
       height="12"
       x="68"
       y="40"
       style="fill:#000000"
       id="rect10"
       rx="2%" />
    <rect
       width="9"
       height="8"
       x="69"
       y="41"
       style="fill:#d3d3d3"
       id="rect11"
       rx="2%" />
    <rect
       width="12"
       height="12"
       x="88"
       y="40"
       style="fill:#000000"
       id="rect12"
       rx="2%" />
    <rect
       width="9"
       height="8"
       x="89"
       y="41"
       style="fill:#d3d3d3"
       id="rect13"
       rx="2%" />
    <rect
       width="32"
       height="12"
       x="28"
       y="56"
       style="fill:#000000"
       id="rect14"
       rx="2%" />
    <rect
       width="29"
       height="8"
       x="29"
       y="57"
       style="fill:#d3d3d3"
       id="rect15"
       rx="2%" />
    <rect
       width="12"
       height="12"
       x="68"
       y="56"
       style="fill:#000000"
       id="rect16"
       rx="2%" />
    <rect
       width="12"
       height="12"
       x="88"
       y="56"
       style="fill:#786721"
       id="rect16-6"
       rx="2%" />
    <rect
       width="9"
       height="8"
       x="69"
       y="57"
       style="fill:#d3d3d3"
       id="rect17"
       rx="2%" />
    <rect
       width="12"
       height="12"
       x="88"
       y="56"
       style="fill:none"
       id="rect18" />
    <rect
       width="9"
       height="8"
       x="89"
       y="57"
       style="fill:#ffdd55"
       id="rect19"
       rx="2%" />
    <rect
       width="12"
       height="12"
       x="28"
       y="72"
       style="fill:#000000"
       id="rect20"
       rx="2%" />
    <rect
       width="9"
       height="8"
       x="29"
       y="73"
       style="fill:#d3d3d3"
       id="rect21"
       rx="2%" />
    <rect
       width="12"
       height="12"
       x="48"
       y="72"
       style="fill:#000000"
       id="rect22"
       rx="2%" />
    <rect
       width="9"
       height="8"
       x="49"
       y="73"
       style="fill:#d3d3d3"
       id="rect23"
       rx="2%" />
    <rect
       width="12"
       height="12"
       x="68"
       y="72"
       style="fill:#000000"
       id="rect24"
       rx="2%" />
    <rect
       width="9"
       height="8"
       x="69"
       y="73"
       style="fill:#d3d3d3"
       id="rect25"
       rx="2%" />
    <rect
       width="12"
       height="12"
       x="88"
       y="72"
       style="fill:#000000"
       id="rect26"
       rx="2%" />
    <rect
       width="9"
       height="8"
       x="89"
       y="73"
       style="fill:#d3d3d3"
       id="rect27"
       rx="2%" />
    <rect
       width="12"
       height="12"
       x="28"
       y="88"
       style="fill:#000000"
       id="rect28"
       rx="2%" />
    <rect
       width="9"
       height="8"
       x="29"
       y="89"
       style="fill:#d3d3d3"
       id="rect29"
       rx="2%" />
    <rect
       width="12"
       height="12"
       x="48"
       y="88"
       style="fill:#000000"
       id="rect30"
       rx="2%" />
    <rect
       width="9"
       height="8"
       x="49"
       y="89"
       style="fill:#d3d3d3"
       id="rect31"
       rx="2%" />
    <rect
       width="12"
       height="12"
       x="68"
       y="88"
       style="fill:#000000"
       id="rect32"
       rx="2%" />
    <rect
       width="9"
       height="8"
       x="69"
       y="89"
       style="fill:#d3d3d3"
       id="rect33"
       rx="2%" />
    <rect
       width="12"
       height="12"
       x="88"
       y="88"
       style="fill:#000000"
       id="rect34"
       rx="2%" />
    <rect
       width="9"
       height="8"
       x="89"
       y="89"
       style="fill:#d3d3d3"
       id="rect35"
       rx="2%" />
    <rect
       width="12"
       height="12"
       x="28"
       y="104"
       style="fill:#000000"
       id="rect36"
       rx="2%" />
    <rect
       width="9"
       height="8"
       x="29"
       y="105"
       style="fill:#d3d3d3"
       id="rect37"
       rx="2%" />
    <rect
       width="12"
       height="12"
       x="48"
       y="104"
       style="fill:#000000"
       id="rect38"
       rx="2%" />
    <rect
       width="9"
       height="8"
       x="49"
       y="105"
       style="fill:#d3d3d3"
       id="rect39"
       rx="2%" />
    <rect
       width="12"
       height="12"
       x="68"
       y="104"
       style="fill:#000000"
       id="rect40"
       rx="2%" />
    <rect
       width="9"
       height="8"
       x="69"
       y="105"
       style="fill:#d3d3d3"
       id="rect41"
       rx="2%" />
    <rect
       width="12"
       height="12"
       x="88"
       y="104"
       style="fill:#000000"
       id="rect42"
       rx="2%" />
    <rect
       width="9"
       height="8"
       x="89"
       y="105"
       style="fill:#d3d3d3"
       id="rect43"
       rx="2%" />
  </g>
</svg>
