<svg width="128" height="128" style="fill:none">
  <svg width="100" height="128" x="16" y="0">
    <rect width="96" height="128" x="0" y="0" style="fill:black"/>
    <rect width="100" height="120" x="0" y="4" style="fill:black"/>
    <rect width="88" height="120" x="4" y="4" style="fill:dimgray"/>
    <rect width="72" height="24" x="12" y="12" style="fill:black"/>
    <rect width="64" height="16" x="16" y="16" style="fill:darkgrey"/>

    <rect width="12" height="12" x="12" y="40" style="fill:black"/>
    <rect width= "8" height= "8" x="12" y="40" style="fill:lightgrey"/>
    <rect width="12" height="12" x="32" y="40" style="fill:black"/>
    <rect width= "8" height= "8" x="32" y="40" style="fill:lightgrey"/>
    <rect width="12" height="12" x="52" y="40" style="fill:black"/>
    <rect width= "8" height= "8" x="52" y="40" style="fill:lightgrey"/>
    <rect width="12" height="12" x="72" y="40" style="fill:black"/>
    <rect width= "8" height= "8" x="72" y="40" style="fill:lightgrey"/>

    <rect width="32" height="12" x="12" y="56" style="fill:black"/>
    <rect width= "28" height= "8" x="12" y="56" style="fill:lightgrey"/>
    <rect width="12" height="12" x="52" y="56" style="fill:black"/>
    <rect width= "8" height= "8" x="52" y="56" style="fill:lightgrey"/>
    <rect width="12" height="12" x="72" y="56" style="fill:goldenrod"/>
    <rect width= "8" height= "8" x="72" y="56" style="fill:yellow"/>

    <rect width="12" height="12" x="12" y="72" style="fill:black"/>
    <rect width= "8" height= "8" x="12" y="72" style="fill:lightgrey"/>
    <rect width="12" height="12" x="32" y="72" style="fill:black"/>
    <rect width= "8" height= "8" x="32" y="72" style="fill:lightgrey"/>
    <rect width="12" height="12" x="52" y="72" style="fill:black"/>
    <rect width= "8" height= "8" x="52" y="72" style="fill:lightgrey"/>
    <rect width="12" height="12" x="72" y="72" style="fill:black"/>
    <rect width= "8" height= "8" x="72" y="72" style="fill:lightgrey"/>

    <rect width="12" height="12" x="12" y="88" style="fill:black"/>
    <rect width= "8" height= "8" x="12" y="88" style="fill:lightgrey"/>
    <rect width="12" height="12" x="32" y="88" style="fill:black"/>
    <rect width= "8" height= "8" x="32" y="88" style="fill:lightgrey"/>
    <rect width="12" height="12" x="52" y="88" style="fill:black"/>
    <rect width= "8" height= "8" x="52" y="88" style="fill:lightgrey"/>
    <rect width="12" height="12" x="72" y="88" style="fill:black"/>
    <rect width= "8" height= "8" x="72" y="88" style="fill:lightgrey"/>

    <rect width="12" height="12" x="12" y="104" style="fill:black"/>
    <rect width= "8" height= "8" x="12" y="104" style="fill:lightgrey"/>
    <rect width="12" height="12" x="32" y="104" style="fill:black"/>
    <rect width= "8" height= "8" x="32" y="104" style="fill:lightgrey"/>
    <rect width="12" height="12" x="52" y="104" style="fill:black"/>
    <rect width= "8" height= "8" x="52" y="104" style="fill:lightgrey"/>
    <rect width="12" height="12" x="72" y="104" style="fill:black"/>
    <rect width= "8" height= "8" x="72" y="104" style="fill:lightgrey"/>
  </svg>
</svg>
